<svg width="1200" height="760" viewBox="0 0 1200 760" fill="none" xmlns="http://www.w3.org/2000/svg">
  <rect width="1200" height="760" rx="32" fill="#F7F4EC"/>
  <rect x="40" y="40" width="1120" height="680" rx="28" fill="#FFFDF8" stroke="#D9D1BE" stroke-width="2"/>
  <text x="80" y="110" fill="#18212F" font-family="Segoe UI, Arial, sans-serif" font-size="42" font-weight="700">What is MCP?</text>
  <text x="80" y="150" fill="#4A5565" font-family="Segoe UI, Arial, sans-serif" font-size="24">
    <tspan x="80" dy="0">A shared protocol that lets AI apps connect to external tools,</tspan>
    <tspan x="80" dy="30">resources, and prompts in a standard way.</tspan>
  </text>

  <rect x="80" y="250" width="240" height="190" rx="24" fill="#18212F"/>
  <text x="110" y="305" fill="#F9FAFB" font-family="Segoe UI, Arial, sans-serif" font-size="28" font-weight="700">Host App</text>
  <text x="110" y="342" fill="#D8E0EA" font-family="Segoe UI, Arial, sans-serif" font-size="20">
    <tspan x="110" dy="0">The AI product</tspan>
    <tspan x="110" dy="26">the user</tspan>
    <tspan x="110" dy="26">interacts with.</tspan>
  </text>

  <rect x="480" y="250" width="240" height="190" rx="24" fill="#2C6E63"/>
  <text x="520" y="305" fill="#F9FAFB" font-family="Segoe UI, Arial, sans-serif" font-size="28" font-weight="700">MCP Layer</text>
  <text x="510" y="342" fill="#DDF2EC" font-family="Segoe UI, Arial, sans-serif" font-size="20">
    <tspan x="510" dy="0">Client connection,</tspan>
    <tspan x="510" dy="26">capability exchange,</tspan>
    <tspan x="510" dy="26">request flow.</tspan>
  </text>

  <rect x="880" y="250" width="240" height="190" rx="24" fill="#C96B3B"/>
  <text x="916" y="305" fill="#FFF8F3" font-family="Segoe UI, Arial, sans-serif" font-size="28" font-weight="700">MCP Server</text>
  <text x="920" y="342" fill="#FFE7DB" font-family="Segoe UI, Arial, sans-serif" font-size="20">
    <tspan x="920" dy="0">Exposes tools,</tspan>
    <tspan x="920" dy="26">resources, and</tspan>
    <tspan x="920" dy="26">prompts.</tspan>
  </text>

  <path d="M340 345H456" stroke="#18212F" stroke-width="8" stroke-linecap="round"/>
  <path d="M438 325L478 345L438 365" stroke="#18212F" stroke-width="8" stroke-linecap="round" stroke-linejoin="round"/>
  <path d="M740 345H856" stroke="#18212F" stroke-width="8" stroke-linecap="round"/>
  <path d="M838 325L878 345L838 365" stroke="#18212F" stroke-width="8" stroke-linecap="round" stroke-linejoin="round"/>

  <rect x="80" y="515" width="1040" height="130" rx="24" fill="#EEF3F7" stroke="#CCD7E1" stroke-width="2"/>
  <circle cx="130" cy="580" r="22" fill="#18212F"/>
  <text x="122" y="588" fill="#F9FAFB" font-family="Segoe UI, Arial, sans-serif" font-size="24" font-weight="700">1</text>
  <text x="170" y="570" fill="#18212F" font-family="Segoe UI, Arial, sans-serif" font-size="24" font-weight="700">User asks the host for help</text>
  <text x="170" y="602" fill="#4A5565" font-family="Segoe UI, Arial, sans-serif" font-size="20">
    <tspan x="170" dy="0">The host can call standardized MCP servers instead of</tspan>
    <tspan x="170" dy="26">hard-coding every integration.</tspan>
  </text>
</svg>
